<svg xmlns="http://www.w3.org/2000/svg" viewBox="0 0 32 32">
  <style>
    circle { fill: #198754; }
    path { fill: #ffffff; }
    @media (prefers-color-scheme: dark) {
      circle { fill: #20c997; }
    }
  </style>
  <circle cx="16" cy="16" r="16"/>
  <path d="M18.5 7a2 2 0 1 1-4 0 2 2 0 0 1 4 0zm-1.2 4.2c-.8 0-1.5.4-1.9 1l-2.1 3.2c-.3.5-.2 1.1.2 1.5l2.8 2.5-1.8 5.4c-.2.6.1 1.3.7 1.5.6.2 1.3-.1 1.5-.7l2-6c.1-.4 0-.8-.3-1.1l-1.6-1.5 1.4-2.1 1.2 1.8c.2.3.5.5.9.6l2.8.6c.6.1 1.2-.3 1.3-.9.1-.6-.3-1.2-.9-1.3l-2.3-.5-1.8-2.7c-.4-.7-1.2-1.2-2.1-1.2z"/>
</svg>
